<svg data-v-f943b36a="" data-v-7493d19c="" xmlns="http://www.w3.org/2000/svg" viewBox="0 0 28 28" class="ico_hamburger"><g data-v-f943b36a="" fill="none" fill-rule="evenodd"><path data-v-f943b36a="" stroke-linejoin="round" stroke-width="1.6" d="M19.96 8.88V6.578c0-3.842-4.4-6.272-9.827-6.272S.306 2.736.306 6.578V8.88H19.96z" transform="translate(-360 -16) translate(364 19)" class="stroke" fill="black"></path> <path data-v-f943b36a="" stroke-linecap="square" stroke-linejoin="round" stroke-width="1.6" d="M.306 12.414c1.228 0 1.228 1.18 2.456 1.18s1.228-1.18 2.456-1.18 1.228 1.18 2.455 1.18c1.229 0 1.229-1.18 2.457-1.18 1.228 0 1.228 1.18 2.455 1.18 1.229 0 1.229-1.18 2.457-1.18 1.23 0 1.23 1.18 2.46 1.18 1.229 0 1.229-1.18 2.458-1.18" transform="translate(-360 -16) translate(364 19)" class="stroke"></path> <g data-v-f943b36a="" stroke-linejoin="round" stroke-width="1.6" class="stroke"><path data-v-f943b36a="" d="M10.133.25H.306v1.966c0 1.087.881 1.968 1.967 1.968h15.72c1.086 0 1.967-.881 1.967-1.968V.25h-9.827" transform="translate(-360 -16) translate(364 19) translate(0 17.192)"></path></g> <path data-v-f943b36a="" d="M5.6 5.8c0 .442-.358.8-.8.8-.442 0-.8-.358-.8-.8 0-.442.358-.8.8-.8.442 0 .8.358.8.8M11.6 5.8c0 .442-.358.8-.8.8-.442 0-.8-.358-.8-.8 0-.442.358-.8.8-.8.442 0 .8.358.8.8M8.6 3.8c0 .442-.358.8-.8.8-.442 0-.8-.358-.8-.8 0-.442.358-.8.8-.8.442 0 .8.358.8.8M13.6 3.8c0 .442-.358.8-.8.8-.442 0-.8-.358-.8-.8 0-.442.358-.8.8-.8.442 0 .8.358.8.8M16.6 5.8c0 .442-.358.8-.8.8-.442 0-.8-.358-.8-.8 0-.442.358-.8.8-.8.442 0 .8.358.8.8" transform="translate(-360 -16) translate(364 19)" class="fill"></path></g></svg>