<svg width="24" height="24" viewBox="0 0 24 24" fill="none" xmlns="http://www.w3.org/2000/svg">
<rect width="24" height="24" fill="#F5F5F5"/>
<path d="M-374 -137C-374 -138.105 -373.105 -139 -372 -139H224C225.105 -139 226 -138.105 226 -137V2054C226 2055.1 225.105 2056 224 2056H-372C-373.105 2056 -374 2055.1 -374 2054V-137Z" fill="#C8C8C8"/>
<g clip-path="url(#clip0_250_290)">
<path d="M15 14L20 9L15 4" stroke="black" stroke-width="2" stroke-linecap="round" stroke-linejoin="round"/>
<path d="M4 20V13C4 11.9391 4.42143 10.9217 5.17157 10.1716C5.92172 9.42143 6.93913 9 8 9H20" stroke="black" stroke-width="2" stroke-linecap="round" stroke-linejoin="round"/>
</g>
<path d="M-372 -138H224V-140H-372V-138ZM225 -137V2054H227V-137H225ZM224 2055H-372V2057H224V2055ZM-373 2054V-137H-375V2054H-373ZM-372 2055C-372.552 2055 -373 2054.55 -373 2054H-375C-375 2055.66 -373.657 2057 -372 2057V2055ZM225 2054C225 2054.55 224.552 2055 224 2055V2057C225.657 2057 227 2055.66 227 2054H225ZM224 -138C224.552 -138 225 -137.552 225 -137H227C227 -138.657 225.657 -140 224 -140V-138ZM-372 -140C-373.657 -140 -375 -138.657 -375 -137H-373C-373 -137.552 -372.552 -138 -372 -138V-140Z" fill="black" fill-opacity="0.1"/>
<defs>
<clipPath id="clip0_250_290">
<rect width="280" height="92" fill="white" transform="translate(-233 -10)"/>
</clipPath>
</defs>
</svg>
