<svg width="25" height="24" viewBox="0 0 25 24" fill="none" xmlns="http://www.w3.org/2000/svg">
<path d="M12.5117 0.751953C6.29853 0.751953 1.26172 5.78872 1.26172 12.002C1.26172 18.2152 6.29853 23.252 12.5117 23.252C18.7249 23.252 23.7617 18.2151 23.7617 12.002C23.7617 5.78877 18.725 0.751953 12.5117 0.751953ZM19.406 18.8962C17.6964 20.6006 15.4136 21.6075 13.0022 21.7206C10.5908 21.8337 8.22372 21.045 6.3621 19.5082C4.50048 17.9714 3.2777 15.7965 2.93204 13.4074C2.58638 11.0182 3.14259 8.58596 4.49229 6.58452C5.84199 4.58307 7.8885 3.15582 10.233 2.58086C12.5776 2.00591 15.0522 2.32443 17.1748 3.47437C19.2973 4.62432 20.9156 6.5233 21.7145 8.8013C22.5134 11.0793 22.4355 13.5731 21.4961 15.7969C21.0065 16.9555 20.2967 18.0081 19.406 18.8962Z" fill="#F8F8F8"/>
<path d="M11.733 7.73374L15.2511 11.2519H6.50642V12.7519H15.2511L11.733 16.27L12.7936 17.3307L18.1224 12.0019L12.7936 6.6731L11.733 7.73374Z" fill="#F8F8F8"/>
</svg>
