<svg width="24" height="24" viewBox="0 0 24 24" fill="none" xmlns="http://www.w3.org/2000/svg">
<rect width="24" height="24" fill="#F5F5F5"/>
<path d="M-269 -137C-269 -138.105 -268.105 -139 -267 -139H329C330.105 -139 331 -138.105 331 -137V2054C331 2055.1 330.105 2056 329 2056H-267C-268.105 2056 -269 2055.1 -269 2054V-137Z" fill="#C8C8C8"/>
<g clip-path="url(#clip0_250_290)">
<path d="M21 11.5C21.0034 12.8199 20.6951 14.1219 20.1 15.3C19.3944 16.7118 18.3098 17.8992 16.9674 18.7293C15.6251 19.5594 14.0782 19.9994 12.5 20C11.1801 20.0035 9.87812 19.6951 8.7 19.1L3 21L4.9 15.3C4.30493 14.1219 3.99656 12.8199 4 11.5C4.00061 9.92179 4.44061 8.37488 5.27072 7.03258C6.10083 5.69028 7.28825 4.6056 8.7 3.90003C9.87812 3.30496 11.1801 2.99659 12.5 3.00003H13C15.0843 3.11502 17.053 3.99479 18.5291 5.47089C20.0052 6.94699 20.885 8.91568 21 11V11.5Z" stroke="black" stroke-width="2" stroke-linecap="round" stroke-linejoin="round"/>
</g>
<path d="M-267 -138H329V-140H-267V-138ZM330 -137V2054H332V-137H330ZM329 2055H-267V2057H329V2055ZM-268 2054V-137H-270V2054H-268ZM-267 2055C-267.552 2055 -268 2054.55 -268 2054H-270C-270 2055.66 -268.657 2057 -267 2057V2055ZM330 2054C330 2054.55 329.552 2055 329 2055V2057C330.657 2057 332 2055.66 332 2054H330ZM329 -138C329.552 -138 330 -137.552 330 -137H332C332 -138.657 330.657 -140 329 -140V-138ZM-267 -140C-268.657 -140 -270 -138.657 -270 -137H-268C-268 -137.552 -267.552 -138 -267 -138V-140Z" fill="black" fill-opacity="0.1"/>
<defs>
<clipPath id="clip0_250_290">
<rect width="280" height="92" fill="white" transform="translate(-128 -10)"/>
</clipPath>
</defs>
</svg>
