<svg width="20" height="21" viewBox="0 0 20 21" fill="none" xmlns="http://www.w3.org/2000/svg">
<path d="M17.3667 4.34166C16.941 3.91583 16.4357 3.57803 15.8795 3.34757C15.3232 3.1171 14.7271 2.99847 14.125 2.99847C13.5229 2.99847 12.9268 3.1171 12.3705 3.34757C11.8143 3.57803 11.309 3.91583 10.8833 4.34166L10 5.225L9.11666 4.34166C8.25692 3.48192 7.09086 2.99892 5.875 2.99892C4.65914 2.99892 3.49307 3.48192 2.63333 4.34166C1.77359 5.20141 1.29059 6.36747 1.29059 7.58333C1.29059 8.79919 1.77359 9.96525 2.63333 10.825L3.51666 11.7083L10 18.1917L16.4833 11.7083L17.3667 10.825C17.7925 10.3994 18.1303 9.89401 18.3608 9.33779C18.5912 8.78158 18.7099 8.1854 18.7099 7.58333C18.7099 6.98126 18.5912 6.38508 18.3608 5.82887C18.1303 5.27265 17.7925 4.76729 17.3667 4.34166V4.34166Z" fill="#EB5757"/>
</svg>
