<svg width="24" height="24" viewBox="0 0 24 24" fill="none" xmlns="http://www.w3.org/2000/svg">
<rect width="24" height="24" fill="#F5F5F5"/>
<path d="M-164 -137C-164 -138.105 -163.105 -139 -162 -139H434C435.105 -139 436 -138.105 436 -137V2054C436 2055.1 435.105 2056 434 2056H-162C-163.105 2056 -164 2055.1 -164 2054V-137Z" fill="#C8C8C8"/>
<g clip-path="url(#clip0_250_290)">
<path d="M7 22H4C3.46957 22 2.96086 21.7893 2.58579 21.4142C2.21071 21.0391 2 20.5304 2 20V13C2 12.4696 2.21071 11.9609 2.58579 11.5858C2.96086 11.2107 3.46957 11 4 11H7M14 9V5C14 4.20435 13.6839 3.44129 13.1213 2.87868C12.5587 2.31607 11.7956 2 11 2L7 11V22H18.28C18.7623 22.0055 19.2304 21.8364 19.5979 21.524C19.9654 21.2116 20.2077 20.7769 20.28 20.3L21.66 11.3C21.7035 11.0134 21.6842 10.7207 21.6033 10.4423C21.5225 10.1638 21.3821 9.90629 21.1919 9.68751C21.0016 9.46873 20.7661 9.29393 20.5016 9.17522C20.2371 9.0565 19.9499 8.99672 19.66 9H14Z" stroke="black" stroke-width="2" stroke-linecap="round" stroke-linejoin="round"/>
</g>
<path d="M-162 -138H434V-140H-162V-138ZM435 -137V2054H437V-137H435ZM434 2055H-162V2057H434V2055ZM-163 2054V-137H-165V2054H-163ZM-162 2055C-162.552 2055 -163 2054.55 -163 2054H-165C-165 2055.66 -163.657 2057 -162 2057V2055ZM435 2054C435 2054.55 434.552 2055 434 2055V2057C435.657 2057 437 2055.66 437 2054H435ZM434 -138C434.552 -138 435 -137.552 435 -137H437C437 -138.657 435.657 -140 434 -140V-138ZM-162 -140C-163.657 -140 -165 -138.657 -165 -137H-163C-163 -137.552 -162.552 -138 -162 -138V-140Z" fill="black" fill-opacity="0.1"/>
<defs>
<clipPath id="clip0_250_290">
<rect width="280" height="92" fill="white" transform="translate(-23 -10)"/>
</clipPath>
</defs>
</svg>
