<svg width="20" height="21" viewBox="0 0 20 21" fill="none" xmlns="http://www.w3.org/2000/svg">
<g id="Icons/message-circle">
<path id="Vector" d="M17.5 10.0833C17.5029 11.1832 17.2459 12.2682 16.75 13.25C16.162 14.4264 15.2581 15.416 14.1395 16.1077C13.021 16.7995 11.7319 17.1662 10.4167 17.1667C9.31678 17.1695 8.23176 16.9126 7.25 16.4167L2.5 18L4.08333 13.25C3.58744 12.2682 3.33047 11.1832 3.33333 10.0833C3.33384 8.76812 3.70051 7.47904 4.39227 6.36045C5.08402 5.24187 6.07355 4.33797 7.25 3.74999C8.23176 3.2541 9.31678 2.99713 10.4167 2.99999H10.8333C12.5703 3.09582 14.2109 3.82896 15.4409 5.05904C16.671 6.28912 17.4042 7.9297 17.5 9.66666V10.0833Z" stroke="black" stroke-width="2" stroke-linecap="round" stroke-linejoin="round"/>
</g>
</svg>
