<svg width="25" height="24" viewBox="0 0 25 24" fill="none" xmlns="http://www.w3.org/2000/svg">
<path d="M12.5 0.751953C6.28681 0.751953 1.25 5.78872 1.25 12.002C1.25 18.2152 6.28681 23.252 12.5 23.252C18.7132 23.252 23.75 18.2151 23.75 12.002C23.75 5.78877 18.7132 0.751953 12.5 0.751953ZM19.3943 18.8962C17.6847 20.6006 15.4018 21.6075 12.9905 21.7206C10.5791 21.8337 8.21201 21.045 6.35038 19.5082C4.48876 17.9714 3.26599 15.7965 2.92032 13.4074C2.57466 11.0182 3.13087 8.58596 4.48057 6.58452C5.83028 4.58307 7.87678 3.15582 10.2213 2.58086C12.5659 2.00591 15.0405 2.32443 17.163 3.47437C19.2856 4.62432 20.9039 6.5233 21.7028 8.8013C22.5017 11.0793 22.4238 13.5731 21.4844 15.7969C20.9948 16.9555 20.285 18.0081 19.3943 18.8962Z" fill="#F8F8F8"/>
<path d="M13.2788 7.73374L12.2181 6.6731L6.8893 12.0019L12.2181 17.3307L13.2788 16.27L9.76063 12.7519H18.5469V11.2519H9.76063L13.2788 7.73374Z" fill="#F8F8F8"/>
</svg>
